<mxfile host="app.diagrams.net" modified="2021-02-22T05:44:41.083Z" agent="5.0 (Windows NT 10.0; Win64; x64) AppleWebKit/537.36 (KHTML, like Gecko) Chrome/88.0.4324.182 Safari/537.36" etag="LyCmn6-hYbs3iFguZEvB" version="13.7.5" type="github">
  <diagram id="CLQZxcMC5-kOAepzaijG" name="Page-1">
    <mxGraphModel dx="3137" dy="783" grid="1" gridSize="10" guides="1" tooltips="1" connect="1" arrows="1" fold="1" page="1" pageScale="1" pageWidth="827" pageHeight="1169" math="0" shadow="0">
      <root>
        <mxCell id="0" />
        <mxCell id="1" parent="0" />
        <mxCell id="q8S28wrqsm7eVF6ChEKj-1" value="" style="rounded=1;whiteSpace=wrap;html=1;fontColor=#ffffff;fillColor=#8CAD80;strokeColor=#8CAD80;" vertex="1" parent="1">
          <mxGeometry x="230" y="40" width="200" height="60" as="geometry" />
        </mxCell>
        <mxCell id="q8S28wrqsm7eVF6ChEKj-6" style="edgeStyle=orthogonalEdgeStyle;rounded=0;orthogonalLoop=1;jettySize=auto;html=1;exitX=1;exitY=0.5;exitDx=0;exitDy=0;fontFamily=Times New Roman;fontSize=14;" edge="1" parent="1" source="q8S28wrqsm7eVF6ChEKj-3">
          <mxGeometry relative="1" as="geometry">
            <mxPoint x="650" y="190" as="targetPoint" />
            <Array as="points">
              <mxPoint x="430" y="90" />
              <mxPoint x="430" y="60" />
              <mxPoint x="650" y="60" />
            </Array>
          </mxGeometry>
        </mxCell>
        <mxCell id="q8S28wrqsm7eVF6ChEKj-3" value="" style="rounded=1;whiteSpace=wrap;html=1;fontColor=#ffffff;fillColor=#FFFFFF;strokeColor=#8CAD80;" vertex="1" parent="1">
          <mxGeometry x="245" y="60" width="195" height="60" as="geometry" />
        </mxCell>
        <mxCell id="q8S28wrqsm7eVF6ChEKj-7" style="edgeStyle=orthogonalEdgeStyle;rounded=0;orthogonalLoop=1;jettySize=auto;html=1;fontFamily=Times New Roman;fontSize=14;entryX=0.575;entryY=-0.082;entryDx=0;entryDy=0;entryPerimeter=0;" edge="1" parent="1" target="q8S28wrqsm7eVF6ChEKj-13">
          <mxGeometry relative="1" as="geometry">
            <mxPoint x="60" y="190" as="targetPoint" />
            <mxPoint x="230" y="90" as="sourcePoint" />
            <Array as="points">
              <mxPoint x="230" y="60" />
              <mxPoint x="39" y="60" />
            </Array>
          </mxGeometry>
        </mxCell>
        <mxCell id="q8S28wrqsm7eVF6ChEKj-4" value="&lt;span style=&quot;font-family: &amp;#34;strawberry blossom&amp;#34; ; font-size: 26.6667px ; font-weight: 700&quot;&gt;IntroducciÃ³n al Comercio Internacional&lt;/span&gt;" style="text;html=1;strokeColor=none;fillColor=none;align=center;verticalAlign=middle;whiteSpace=wrap;rounded=0;fontFamily=Times New Roman;fontSize=14;" vertex="1" parent="1">
          <mxGeometry x="260" y="80" width="170" height="20" as="geometry" />
        </mxCell>
        <mxCell id="q8S28wrqsm7eVF6ChEKj-13" value="" style="shape=hexagon;perimeter=hexagonPerimeter2;whiteSpace=wrap;html=1;fixedSize=1;fontFamily=Times New Roman;fontSize=14;fontColor=#ffffff;strokeColor=#D5E8D4;fillColor=#D5E8D4;" vertex="1" parent="1">
          <mxGeometry x="-30" y="200" width="120" height="80" as="geometry" />
        </mxCell>
        <mxCell id="q8S28wrqsm7eVF6ChEKj-17" value="" style="shape=hexagon;perimeter=hexagonPerimeter2;whiteSpace=wrap;html=1;fixedSize=1;fontFamily=Times New Roman;fontSize=14;fillColor=none;" vertex="1" parent="1">
          <mxGeometry x="-35" y="200" width="120" height="80" as="geometry" />
        </mxCell>
        <mxCell id="q8S28wrqsm7eVF6ChEKj-18" value="" style="shape=hexagon;perimeter=hexagonPerimeter2;whiteSpace=wrap;html=1;fixedSize=1;fontFamily=Times New Roman;fontSize=14;fillColor=none;" vertex="1" parent="1">
          <mxGeometry x="-30" y="200" width="120" height="80" as="geometry" />
        </mxCell>
        <mxCell id="q8S28wrqsm7eVF6ChEKj-19" value="" style="shape=hexagon;perimeter=hexagonPerimeter2;whiteSpace=wrap;html=1;fixedSize=1;fontFamily=Times New Roman;fontSize=14;fillColor=none;" vertex="1" parent="1">
          <mxGeometry x="-30" y="200" width="125" height="80" as="geometry" />
        </mxCell>
        <mxCell id="q8S28wrqsm7eVF6ChEKj-21" value="" style="shape=hexagon;perimeter=hexagonPerimeter2;whiteSpace=wrap;html=1;fixedSize=1;fontFamily=Times New Roman;fontSize=14;fillColor=none;" vertex="1" parent="1">
          <mxGeometry x="-35" y="196.25" width="130" height="80" as="geometry" />
        </mxCell>
        <mxCell id="q8S28wrqsm7eVF6ChEKj-22" value="" style="shape=hexagon;perimeter=hexagonPerimeter2;whiteSpace=wrap;html=1;fixedSize=1;fontFamily=Times New Roman;fontSize=14;fillColor=none;" vertex="1" parent="1">
          <mxGeometry x="-30" y="205" width="120" height="80" as="geometry" />
        </mxCell>
        <mxCell id="q8S28wrqsm7eVF6ChEKj-28" value="&lt;br style=&quot;font-size: 28px&quot;&gt;&lt;br style=&quot;font-size: 28px&quot;&gt;&lt;span style=&quot;font-size: 28px ; font-family: &amp;#34;strawberry blossom&amp;#34; ; font-weight: 700&quot;&gt;&amp;nbsp;Modelos&lt;/span&gt;" style="text;html=1;fillColor=none;align=center;verticalAlign=middle;whiteSpace=wrap;rounded=0;fontFamily=Times New Roman;fontSize=14;" vertex="1" parent="1">
          <mxGeometry x="-15" y="200" width="90" height="30" as="geometry" />
        </mxCell>
        <mxCell id="q8S28wrqsm7eVF6ChEKj-31" value="" style="ellipse;whiteSpace=wrap;html=1;aspect=fixed;fontFamily=Times New Roman;fontSize=14;fillColor=#D5E8D4;strokeColor=#D5E8D4;" vertex="1" parent="1">
          <mxGeometry x="600" y="200" width="92.5" height="92.5" as="geometry" />
        </mxCell>
        <mxCell id="q8S28wrqsm7eVF6ChEKj-40" value="" style="ellipse;whiteSpace=wrap;html=1;aspect=fixed;fillColor=none;fontFamily=Times New Roman;fontSize=14;" vertex="1" parent="1">
          <mxGeometry x="592.5" y="192.5" width="100" height="100" as="geometry" />
        </mxCell>
        <mxCell id="q8S28wrqsm7eVF6ChEKj-41" value="&lt;span style=&quot;font-family: &amp;#34;strawberry blossom&amp;#34; ; font-size: 26.6667px ; font-weight: 700&quot;&gt;Conceptos adicionales&amp;nbsp;&lt;/span&gt;" style="text;html=1;strokeColor=none;fillColor=none;align=center;verticalAlign=middle;whiteSpace=wrap;rounded=0;fontFamily=Times New Roman;fontSize=14;" vertex="1" parent="1">
          <mxGeometry x="568.75" y="215" width="155" height="50" as="geometry" />
        </mxCell>
        <mxCell id="q8S28wrqsm7eVF6ChEKj-42" value="" style="ellipse;whiteSpace=wrap;html=1;aspect=fixed;fillColor=none;fontFamily=Times New Roman;fontSize=14;" vertex="1" parent="1">
          <mxGeometry x="600" y="196.25" width="100" height="100" as="geometry" />
        </mxCell>
        <mxCell id="q8S28wrqsm7eVF6ChEKj-43" value="" style="ellipse;whiteSpace=wrap;html=1;aspect=fixed;fillColor=none;fontFamily=Times New Roman;fontSize=14;" vertex="1" parent="1">
          <mxGeometry x="596.25" y="196.25" width="100" height="100" as="geometry" />
        </mxCell>
        <mxCell id="q8S28wrqsm7eVF6ChEKj-44" value="" style="ellipse;whiteSpace=wrap;html=1;aspect=fixed;fillColor=none;fontFamily=Times New Roman;fontSize=14;" vertex="1" parent="1">
          <mxGeometry x="592.5" y="196.25" width="100" height="100" as="geometry" />
        </mxCell>
        <mxCell id="q8S28wrqsm7eVF6ChEKj-45" value="" style="ellipse;whiteSpace=wrap;html=1;aspect=fixed;fillColor=none;fontFamily=Times New Roman;fontSize=14;" vertex="1" parent="1">
          <mxGeometry x="596.25" y="196.25" width="100" height="100" as="geometry" />
        </mxCell>
        <mxCell id="q8S28wrqsm7eVF6ChEKj-87" style="rounded=0;orthogonalLoop=1;jettySize=auto;html=1;exitX=0.5;exitY=1;exitDx=0;exitDy=0;strokeWidth=2;fontFamily=Times New Roman;fontSize=14;edgeStyle=orthogonalEdgeStyle;entryX=0.015;entryY=1.26;entryDx=0;entryDy=0;entryPerimeter=0;" edge="1" parent="1" source="q8S28wrqsm7eVF6ChEKj-46" target="q8S28wrqsm7eVF6ChEKj-99">
          <mxGeometry relative="1" as="geometry">
            <mxPoint x="550" y="770" as="targetPoint" />
            <Array as="points">
              <mxPoint x="650" y="360" />
              <mxPoint x="530" y="360" />
              <mxPoint x="530" y="768" />
            </Array>
          </mxGeometry>
        </mxCell>
        <mxCell id="q8S28wrqsm7eVF6ChEKj-46" value="" style="ellipse;whiteSpace=wrap;html=1;aspect=fixed;fillColor=none;fontFamily=Times New Roman;fontSize=14;" vertex="1" parent="1">
          <mxGeometry x="600" y="195" width="100" height="100" as="geometry" />
        </mxCell>
        <mxCell id="q8S28wrqsm7eVF6ChEKj-61" style="edgeStyle=orthogonalEdgeStyle;rounded=0;orthogonalLoop=1;jettySize=auto;html=1;exitX=0.5;exitY=1;exitDx=0;exitDy=0;fontFamily=Times New Roman;fontSize=14;strokeWidth=2;entryX=0.429;entryY=0;entryDx=0;entryDy=0;entryPerimeter=0;" edge="1" parent="1" source="q8S28wrqsm7eVF6ChEKj-50" target="q8S28wrqsm7eVF6ChEKj-58">
          <mxGeometry relative="1" as="geometry">
            <mxPoint x="-80" y="338" as="targetPoint" />
            <Array as="points">
              <mxPoint x="30" y="310" />
              <mxPoint x="-80" y="310" />
            </Array>
          </mxGeometry>
        </mxCell>
        <mxCell id="q8S28wrqsm7eVF6ChEKj-63" style="edgeStyle=orthogonalEdgeStyle;rounded=0;orthogonalLoop=1;jettySize=auto;html=1;exitX=0.5;exitY=1;exitDx=0;exitDy=0;entryX=0.5;entryY=0;entryDx=0;entryDy=0;fontFamily=Times New Roman;fontSize=14;strokeWidth=2;" edge="1" parent="1" source="q8S28wrqsm7eVF6ChEKj-50" target="q8S28wrqsm7eVF6ChEKj-59">
          <mxGeometry relative="1" as="geometry" />
        </mxCell>
        <mxCell id="q8S28wrqsm7eVF6ChEKj-64" style="edgeStyle=orthogonalEdgeStyle;rounded=0;orthogonalLoop=1;jettySize=auto;html=1;exitX=0.5;exitY=1;exitDx=0;exitDy=0;strokeWidth=2;fontFamily=Times New Roman;fontSize=14;" edge="1" parent="1" source="q8S28wrqsm7eVF6ChEKj-50">
          <mxGeometry relative="1" as="geometry">
            <mxPoint x="-670" y="340" as="targetPoint" />
            <Array as="points">
              <mxPoint x="30" y="310" />
              <mxPoint x="-670" y="310" />
            </Array>
          </mxGeometry>
        </mxCell>
        <mxCell id="q8S28wrqsm7eVF6ChEKj-50" value="" style="shape=hexagon;perimeter=hexagonPerimeter2;whiteSpace=wrap;html=1;fixedSize=1;fontFamily=Times New Roman;fontSize=14;fillColor=none;" vertex="1" parent="1">
          <mxGeometry x="-30" y="190" width="120" height="90" as="geometry" />
        </mxCell>
        <mxCell id="q8S28wrqsm7eVF6ChEKj-57" value="" style="shape=parallelogram;perimeter=parallelogramPerimeter;whiteSpace=wrap;html=1;fixedSize=1;fontFamily=Times New Roman;fontSize=14;strokeWidth=2;fillColor=#B9E0A5;strokeColor=#97D077;" vertex="1" parent="1">
          <mxGeometry x="-760" y="355" width="210" height="50" as="geometry" />
        </mxCell>
        <mxCell id="q8S28wrqsm7eVF6ChEKj-58" value="" style="shape=parallelogram;perimeter=parallelogramPerimeter;whiteSpace=wrap;html=1;fixedSize=1;fontFamily=Times New Roman;fontSize=14;strokeWidth=2;strokeColor=#97D077;fillColor=#B9E0A5;" vertex="1" parent="1">
          <mxGeometry x="-170" y="350" width="210" height="50" as="geometry" />
        </mxCell>
        <mxCell id="q8S28wrqsm7eVF6ChEKj-59" value="" style="shape=parallelogram;perimeter=parallelogramPerimeter;whiteSpace=wrap;html=1;fixedSize=1;fontFamily=Times New Roman;fontSize=14;strokeWidth=2;fillColor=#B8E3A8;strokeColor=#97D077;" vertex="1" parent="1">
          <mxGeometry x="210" y="340" width="210" height="50" as="geometry" />
        </mxCell>
        <mxCell id="q8S28wrqsm7eVF6ChEKj-105" style="edgeStyle=orthogonalEdgeStyle;rounded=0;orthogonalLoop=1;jettySize=auto;html=1;exitX=0.386;exitY=1.006;exitDx=0;exitDy=0;strokeWidth=2;fontFamily=Times New Roman;fontSize=14;exitPerimeter=0;" edge="1" parent="1" source="q8S28wrqsm7eVF6ChEKj-65">
          <mxGeometry relative="1" as="geometry">
            <mxPoint x="-950" y="660" as="targetPoint" />
            <Array as="points">
              <mxPoint x="-680" y="430" />
              <mxPoint x="-1010" y="430" />
              <mxPoint x="-1010" y="660" />
            </Array>
          </mxGeometry>
        </mxCell>
        <mxCell id="q8S28wrqsm7eVF6ChEKj-106" value="Conceptos del modelo" style="edgeLabel;html=1;align=center;verticalAlign=middle;resizable=0;points=[];fontSize=14;fontFamily=Times New Roman;labelBackgroundColor=#ffffff;" vertex="1" connectable="0" parent="q8S28wrqsm7eVF6ChEKj-105">
          <mxGeometry x="0.0807" relative="1" as="geometry">
            <mxPoint x="109.35" as="offset" />
          </mxGeometry>
        </mxCell>
        <mxCell id="q8S28wrqsm7eVF6ChEKj-65" value="&lt;p class=&quot;MsoNormal&quot;&gt;&lt;span lang=&quot;ES-MX&quot; style=&quot;line-height: 107% ; font-family: &amp;#34;strawberry blossom&amp;#34;&quot;&gt;&lt;font style=&quot;font-size: 27px&quot;&gt;&lt;b&gt;Ricardiano o ventaja comparativa&lt;/b&gt;&lt;/font&gt;&lt;/span&gt;&lt;/p&gt;" style="text;html=1;strokeColor=none;fillColor=none;align=center;verticalAlign=middle;whiteSpace=wrap;rounded=0;fontFamily=Times New Roman;fontSize=14;" vertex="1" parent="1">
          <mxGeometry x="-765" y="360" width="220" height="50" as="geometry" />
        </mxCell>
        <mxCell id="q8S28wrqsm7eVF6ChEKj-66" value="&lt;p class=&quot;MsoNormal&quot;&gt;&lt;span lang=&quot;ES-MX&quot; style=&quot;line-height: 107% ; font-family: &amp;#34;strawberry blossom&amp;#34;&quot;&gt;&lt;font style=&quot;font-size: 28px&quot;&gt;&lt;b&gt;Factores especÃ­ficos&amp;nbsp;&lt;/b&gt;&lt;/font&gt;&lt;/span&gt;&lt;/p&gt;" style="text;html=1;strokeColor=none;fillColor=none;align=center;verticalAlign=middle;whiteSpace=wrap;rounded=0;fontFamily=Times New Roman;fontSize=14;" vertex="1" parent="1">
          <mxGeometry x="-140" y="360" width="150" height="30" as="geometry" />
        </mxCell>
        <mxCell id="q8S28wrqsm7eVF6ChEKj-70" value="&lt;p class=&quot;MsoNormal&quot;&gt;&lt;span lang=&quot;ES-MX&quot; style=&quot;line-height: 107% ; font-family: &amp;#34;strawberry blossom&amp;#34;&quot;&gt;&lt;font style=&quot;font-size: 28px&quot;&gt;&lt;b&gt;H-O&lt;/b&gt;&lt;/font&gt;&lt;/span&gt;&lt;/p&gt;" style="text;html=1;strokeColor=none;fillColor=none;align=center;verticalAlign=middle;whiteSpace=wrap;rounded=0;fontFamily=Times New Roman;fontSize=14;" vertex="1" parent="1">
          <mxGeometry x="270" y="355" width="90" height="20" as="geometry" />
        </mxCell>
        <mxCell id="q8S28wrqsm7eVF6ChEKj-74" value="" style="rounded=0;whiteSpace=wrap;html=1;strokeWidth=2;fontFamily=Times New Roman;fontSize=14;strokeColor=#FFFFFF;" vertex="1" parent="1">
          <mxGeometry x="620" y="320" width="70" height="20" as="geometry" />
        </mxCell>
        <mxCell id="q8S28wrqsm7eVF6ChEKj-75" value="Tal como" style="text;html=1;strokeColor=none;fillColor=none;align=center;verticalAlign=middle;whiteSpace=wrap;rounded=0;fontFamily=Times New Roman;fontSize=14;" vertex="1" parent="1">
          <mxGeometry x="616.25" y="320" width="80" height="20" as="geometry" />
        </mxCell>
        <mxCell id="q8S28wrqsm7eVF6ChEKj-76" value="" style="rounded=0;whiteSpace=wrap;html=1;strokeWidth=2;fillColor=#B9E0A5;fontFamily=Times New Roman;fontSize=14;strokeColor=none;" vertex="1" parent="1">
          <mxGeometry x="580" y="375" width="200" height="95" as="geometry" />
        </mxCell>
        <mxCell id="q8S28wrqsm7eVF6ChEKj-77" value="&lt;div style=&quot;text-align: center&quot;&gt;&lt;font face=&quot;strawberry blossom&quot;&gt;&lt;span style=&quot;font-size: 28px&quot;&gt;&lt;b&gt;Coste de oportunidad:&lt;/b&gt;&lt;/span&gt;&lt;/font&gt;&lt;/div&gt;" style="text;html=1;strokeColor=none;fillColor=none;align=center;verticalAlign=middle;whiteSpace=wrap;rounded=0;fontFamily=Times New Roman;fontSize=14;" vertex="1" parent="1">
          <mxGeometry x="596.25" y="380" width="173.75" height="30" as="geometry" />
        </mxCell>
        <mxCell id="q8S28wrqsm7eVF6ChEKj-94" style="edgeStyle=orthogonalEdgeStyle;rounded=0;orthogonalLoop=1;jettySize=auto;html=1;exitX=0.5;exitY=1;exitDx=0;exitDy=0;strokeWidth=2;fontFamily=Times New Roman;fontSize=14;" edge="1" parent="1" source="q8S28wrqsm7eVF6ChEKj-84">
          <mxGeometry relative="1" as="geometry">
            <mxPoint x="600" y="660" as="targetPoint" />
          </mxGeometry>
        </mxCell>
        <mxCell id="q8S28wrqsm7eVF6ChEKj-95" style="edgeStyle=orthogonalEdgeStyle;rounded=0;orthogonalLoop=1;jettySize=auto;html=1;exitX=0.5;exitY=1;exitDx=0;exitDy=0;strokeWidth=2;fontFamily=Times New Roman;fontSize=14;" edge="1" parent="1" source="q8S28wrqsm7eVF6ChEKj-84">
          <mxGeometry relative="1" as="geometry">
            <mxPoint x="770" y="660" as="targetPoint" />
          </mxGeometry>
        </mxCell>
        <mxCell id="q8S28wrqsm7eVF6ChEKj-84" value="" style="rounded=0;whiteSpace=wrap;html=1;strokeWidth=2;fillColor=#B9E0A5;fontFamily=Times New Roman;fontSize=14;strokeColor=none;" vertex="1" parent="1">
          <mxGeometry x="580" y="505" width="200" height="115" as="geometry" />
        </mxCell>
        <mxCell id="q8S28wrqsm7eVF6ChEKj-85" value="&lt;p class=&quot;MsoNormal&quot;&gt;&lt;span lang=&quot;ES-MX&quot; style=&quot;line-height: 107% ; font-family: &amp;#34;strawberry blossom&amp;#34;&quot;&gt;&lt;font style=&quot;font-size: 28px&quot;&gt;&lt;b&gt;Modelo de gravedad&lt;/b&gt;&lt;/font&gt;&lt;/span&gt;&lt;/p&gt;" style="text;html=1;strokeColor=none;fillColor=none;align=center;verticalAlign=middle;whiteSpace=wrap;rounded=0;fontFamily=Times New Roman;fontSize=14;" vertex="1" parent="1">
          <mxGeometry x="568.75" y="510" width="210" height="30" as="geometry" />
        </mxCell>
        <mxCell id="q8S28wrqsm7eVF6ChEKj-86" value="&lt;div style=&quot;text-align: justify&quot;&gt;&lt;span&gt;&lt;font style=&quot;font-size: 12px&quot;&gt;La lÃ³gica del modelo es que el comercio entre dos economÃ­as cualesquiera es mas grande cuanto mas grande sea cualquiera de las economÃ­as implicadas&lt;/font&gt;&lt;/span&gt;&lt;/div&gt;" style="text;html=1;strokeColor=none;fillColor=none;align=center;verticalAlign=middle;whiteSpace=wrap;rounded=0;fontFamily=Times New Roman;fontSize=14;" vertex="1" parent="1">
          <mxGeometry x="580" y="565" width="200" height="20" as="geometry" />
        </mxCell>
        <mxCell id="q8S28wrqsm7eVF6ChEKj-90" value="" style="endArrow=classic;html=1;strokeWidth=2;fontFamily=Times New Roman;fontSize=14;entryX=-0.021;entryY=0.581;entryDx=0;entryDy=0;entryPerimeter=0;" edge="1" parent="1" target="q8S28wrqsm7eVF6ChEKj-76">
          <mxGeometry width="50" height="50" relative="1" as="geometry">
            <mxPoint x="530" y="430" as="sourcePoint" />
            <mxPoint x="590" y="410" as="targetPoint" />
          </mxGeometry>
        </mxCell>
        <mxCell id="q8S28wrqsm7eVF6ChEKj-96" value="" style="rounded=0;whiteSpace=wrap;html=1;strokeWidth=2;fillColor=#B9E0A5;fontFamily=Times New Roman;fontSize=14;strokeColor=none;" vertex="1" parent="1">
          <mxGeometry x="568.75" y="670" width="100" height="40" as="geometry" />
        </mxCell>
        <mxCell id="q8S28wrqsm7eVF6ChEKj-97" value="" style="rounded=0;whiteSpace=wrap;html=1;strokeColor=#FFFFFF;strokeWidth=2;fillColor=#B9E0A5;fontFamily=Times New Roman;fontSize=14;" vertex="1" parent="1">
          <mxGeometry x="723.75" y="670" width="100" height="40" as="geometry" />
        </mxCell>
        <mxCell id="q8S28wrqsm7eVF6ChEKj-98" value="" style="rounded=0;whiteSpace=wrap;html=1;strokeColor=#FFFFFF;strokeWidth=2;fillColor=#B9E0A5;fontFamily=Times New Roman;fontSize=14;" vertex="1" parent="1">
          <mxGeometry x="580" y="730" width="193.75" height="80" as="geometry" />
        </mxCell>
        <mxCell id="q8S28wrqsm7eVF6ChEKj-99" value="&lt;p class=&quot;MsoNormal&quot;&gt;&lt;span lang=&quot;ES-MX&quot; style=&quot;line-height: 107% ; font-family: &amp;#34;strawberry blossom&amp;#34;&quot;&gt;&lt;font style=&quot;font-size: 28px&quot;&gt;&lt;b&gt;Outsourcing&amp;nbsp;&lt;/b&gt;&lt;/font&gt;&lt;/span&gt;&lt;/p&gt;" style="text;html=1;strokeColor=none;fillColor=none;align=center;verticalAlign=middle;whiteSpace=wrap;rounded=0;fontFamily=Times New Roman;fontSize=14;" vertex="1" parent="1">
          <mxGeometry x="575" y="730" width="210" height="30" as="geometry" />
        </mxCell>
        <mxCell id="q8S28wrqsm7eVF6ChEKj-101" value="" style="endArrow=classic;html=1;strokeWidth=2;fontFamily=Times New Roman;fontSize=14;" edge="1" parent="1">
          <mxGeometry width="50" height="50" relative="1" as="geometry">
            <mxPoint x="530" y="565" as="sourcePoint" />
            <mxPoint x="580" y="565" as="targetPoint" />
          </mxGeometry>
        </mxCell>
        <mxCell id="q8S28wrqsm7eVF6ChEKj-102" value="&lt;div style=&quot;text-align: justify&quot;&gt;&lt;span&gt;&lt;font style=&quot;font-size: 12px&quot;&gt;Las empresas sacan parte de sus operaciones fuera de su paÃ­s de origen&lt;/font&gt;&lt;/span&gt;&lt;/div&gt;" style="text;html=1;strokeColor=none;fillColor=none;align=center;verticalAlign=middle;whiteSpace=wrap;rounded=0;fontFamily=Times New Roman;fontSize=14;" vertex="1" parent="1">
          <mxGeometry x="600" y="770" width="160" height="20" as="geometry" />
        </mxCell>
        <mxCell id="q8S28wrqsm7eVF6ChEKj-107" value="" style="rounded=0;whiteSpace=wrap;html=1;strokeWidth=2;fontFamily=Times New Roman;fontSize=14;fillColor=#E3F7E2;strokeColor=none;" vertex="1" parent="1">
          <mxGeometry x="-950" y="455" width="220" height="120" as="geometry" />
        </mxCell>
        <mxCell id="q8S28wrqsm7eVF6ChEKj-108" value="&lt;div style=&quot;text-align: justify&quot;&gt;&lt;span style=&quot;font-size: 12px&quot;&gt;Si tiene V.C en la producciÃ³n&amp;nbsp;de un bien si el coste de oportunidad en la producciÃ³n de este bien en termino de otros bienes es inferior en este paÃ­s&amp;nbsp;de lo que lo es en otro paÃ­ses&lt;/span&gt;&lt;/div&gt;" style="text;html=1;strokeColor=none;fillColor=none;align=center;verticalAlign=middle;whiteSpace=wrap;rounded=0;fontFamily=Times New Roman;fontSize=14;" vertex="1" parent="1">
          <mxGeometry x="-950" y="520" width="210" height="20" as="geometry" />
        </mxCell>
        <mxCell id="q8S28wrqsm7eVF6ChEKj-109" value="&lt;b style=&quot;color: rgb(0 , 0 , 0) ; font-family: &amp;#34;strawberry blossom&amp;#34; ; font-size: 28px ; font-style: normal ; letter-spacing: normal ; text-align: center ; text-indent: 0px ; text-transform: none ; word-spacing: 0px&quot;&gt;Ventaja comparativa&lt;br&gt;&lt;br&gt;&lt;/b&gt;" style="text;whiteSpace=wrap;html=1;fontSize=14;fontFamily=Times New Roman;" vertex="1" parent="1">
          <mxGeometry x="-930" y="450" width="170" height="30" as="geometry" />
        </mxCell>
        <mxCell id="q8S28wrqsm7eVF6ChEKj-111" value="" style="endArrow=classic;html=1;strokeWidth=2;fontFamily=Times New Roman;fontSize=14;" edge="1" parent="1">
          <mxGeometry width="50" height="50" relative="1" as="geometry">
            <mxPoint x="-1010" y="520" as="sourcePoint" />
            <mxPoint x="-950" y="520" as="targetPoint" />
          </mxGeometry>
        </mxCell>
        <mxCell id="q8S28wrqsm7eVF6ChEKj-112" value="" style="rounded=0;whiteSpace=wrap;html=1;strokeWidth=2;fillColor=#E3F7E2;fontFamily=Times New Roman;fontSize=14;strokeColor=#FFFFFF;" vertex="1" parent="1">
          <mxGeometry x="-950" y="610" width="240" height="100" as="geometry" />
        </mxCell>
        <mxCell id="q8S28wrqsm7eVF6ChEKj-113" value="&lt;b style=&quot;color: rgb(0 , 0 , 0) ; font-family: &amp;#34;strawberry blossom&amp;#34; ; font-size: 28px ; font-style: normal ; letter-spacing: normal ; text-align: center ; text-indent: 0px ; text-transform: none ; word-spacing: 0px&quot;&gt;Ventaja absoluta (Adam Smith)&lt;br&gt;&lt;br&gt;&lt;/b&gt;" style="text;whiteSpace=wrap;html=1;fontSize=14;fontFamily=Times New Roman;" vertex="1" parent="1">
          <mxGeometry x="-950" y="610" width="240" height="30" as="geometry" />
        </mxCell>
        <mxCell id="q8S28wrqsm7eVF6ChEKj-114" value="&lt;p class=&quot;MsoNormal&quot; style=&quot;text-align: justify ; line-height: 150% ; page-break-after: avoid&quot;&gt;&lt;span lang=&quot;ES-TRAD&quot;&gt;&lt;font style=&quot;font-size: 12px&quot;&gt;Cuando puede producir una unidad de un bien con menos trabajo que otro paÃ­s.&lt;/font&gt;&lt;/span&gt;&lt;/p&gt;" style="text;html=1;strokeColor=none;fillColor=none;align=center;verticalAlign=middle;whiteSpace=wrap;rounded=0;fontFamily=Times New Roman;fontSize=14;" vertex="1" parent="1">
          <mxGeometry x="-930" y="660" width="200" height="20" as="geometry" />
        </mxCell>
        <mxCell id="q8S28wrqsm7eVF6ChEKj-116" value="" style="rounded=0;whiteSpace=wrap;html=1;labelBackgroundColor=#ffffff;strokeColor=#000000;strokeWidth=2;fillColor=#E3F7E2;fontFamily=Times New Roman;fontSize=14;" vertex="1" parent="1">
          <mxGeometry x="-623" y="455" width="210" height="90" as="geometry" />
        </mxCell>
        <mxCell id="q8S28wrqsm7eVF6ChEKj-118" value="El comercio internacional se debe unicamente a las diferencias de la productividad del trabajo" style="text;html=1;strokeColor=none;fillColor=none;align=center;verticalAlign=middle;whiteSpace=wrap;rounded=0;labelBackgroundColor=none;fontFamily=Times New Roman;fontSize=14;" vertex="1" parent="1">
          <mxGeometry x="-600" y="480" width="180" height="45" as="geometry" />
        </mxCell>
      </root>
    </mxGraphModel>
  </diagram>
</mxfile>
